<svg xmlns="http://www.w3.org/2000/svg" width="48" height="48" viewBox="0 0 48 48" fill="none"><path d="M23.9999 14.0781C18.5204 14.0781 14.0784 18.5201 14.0784 23.9997C14.0784 29.4792 18.5204 33.9213 23.9999 33.9213C29.4795 33.9213 33.9215 29.4792 33.9215 23.9997C33.9215 18.5201 29.4795 14.0781 23.9999 14.0781ZM23.9999 29.3988C21.018 29.3988 18.6007 26.9815 18.6007 23.9997C18.6007 21.0179 21.018 18.6005 23.9999 18.6005C26.9818 18.6005 29.3991 21.0179 29.3991 23.9997C29.3991 26.9815 26.9818 29.3988 23.9999 29.3988Z" fill="#FFF27E"/><path d="M24 2C11.8412 2 2 11.8395 2 24C2 28.2152 3.19292 32.3006 5.45098 35.8332V40.972C3.7707 40.3759 2 41.6295 2 43.4118C2 44.8389 3.16108 46 4.58824 46C6.01539 46 7.17647 44.8389 7.17647 43.4118V36.5665L12.3529 37.2641V39.2465C10.6727 38.6505 8.90196 39.904 8.90196 41.6863C8.90196 43.1134 10.063 44.2745 11.4902 44.2745C12.294 44.2745 13.0134 43.9061 13.4885 43.3294C16.7007 45.0787 20.3154 46 24 46C36.1588 46 46 36.1605 46 24C46 11.8412 36.1605 2 24 2V2ZM4.58824 44.2745C4.11252 44.2745 3.72549 43.8875 3.72549 43.4118C3.72549 42.936 4.11252 42.549 4.58824 42.549C5.06395 42.549 5.45098 42.936 5.45098 43.4118C5.45098 43.8875 5.06395 44.2745 4.58824 44.2745ZM11.4902 42.549C11.0145 42.549 10.6275 42.162 10.6275 41.6863C10.6275 41.2106 11.0145 40.8235 11.4902 40.8235C11.9659 40.8235 12.3529 41.2106 12.3529 41.6863C12.3529 42.162 11.9659 42.549 11.4902 42.549ZM24 44.2745C20.5138 44.2745 17.096 43.38 14.0784 41.6839V36.5098C14.0784 36.0778 13.759 35.7125 13.3309 35.6548L6.8243 34.778C4.79581 31.5526 3.72549 27.8347 3.72549 24C3.72549 12.8206 12.8205 3.72549 24 3.72549C35.1794 3.72549 44.2745 12.8206 44.2745 24C44.2745 35.1794 35.1794 44.2745 24 44.2745Z" fill="#121619"/><path d="M24.8625 8.03901C24.8625 7.56261 24.4762 7.17627 23.9998 7.17627C14.7233 7.17627 7.17627 14.7233 7.17627 23.9998C7.17627 24.4762 7.56252 24.8625 8.03901 24.8625C8.51551 24.8625 8.90176 24.4762 8.90176 23.9998C8.90176 15.6747 15.6747 8.90176 23.9998 8.90176C24.4762 8.90176 24.8625 8.51542 24.8625 8.03901Z" fill="#121619"/><path d="M39.9607 23.1372C39.4843 23.1372 39.098 23.5235 39.098 24C39.098 32.325 32.325 39.098 24 39.098C23.5235 39.098 23.1372 39.4843 23.1372 39.9607C23.1372 40.4371 23.5235 40.8235 24 40.8235C33.2764 40.8235 40.8235 33.2764 40.8235 24C40.8235 23.5235 40.4371 23.1372 39.9607 23.1372Z" fill="#121619"/><path d="M30.2619 24.0002C30.2619 20.5474 27.4528 17.7383 24 17.7383C20.5472 17.7383 17.738 20.5474 17.738 24.0002C17.738 27.453 20.5471 30.2621 24 30.2621C27.4529 30.2621 30.2619 27.4531 30.2619 24.0002ZM19.4635 24.0002C19.4635 21.4988 21.4986 19.4638 24 19.4638C26.5014 19.4638 28.5364 21.4988 28.5364 24.0002C28.5364 26.5015 26.5014 28.5366 24 28.5366C21.4986 28.5366 19.4635 26.5015 19.4635 24.0002Z" fill="#121619"/></svg>