<svg xmlns="http://www.w3.org/2000/svg" width="48" height="48" viewBox="0 0 48 48" fill="none"><g clip-path="url(#clip0_1881_7153)"><path fill-rule="evenodd" clip-rule="evenodd" d="M31.5391 18.3686V24.1614L31.7282 24.2706C35.058 25.3999 39.1478 24.8889 42.0459 23.0441C43.377 23.4013 44.708 23.7584 46.0392 24.115C46.7498 24.3155 47.4301 23.6655 47.2355 22.9348C46.8774 21.5986 46.5193 20.2636 46.1611 18.9286C51.2389 10.8372 45.1829 -0.0913933 35.5555 0.00739388C27.2166 -0.146785 21.0131 8.54115 23.758 16.3702L23.8075 16.4559H29.6264C30.6781 16.4559 31.5391 17.3166 31.5391 18.3686Z" fill="#FFF27E"/><path d="M29.6265 15.5186H2.84983C1.27842 15.5186 0 16.797 0 18.3684V41.3197C0 42.8911 1.27842 44.1696 2.84983 44.1696H3.82515V47.0575C3.82515 47.3823 3.99329 47.684 4.26969 47.8548C4.54637 48.0257 4.89156 48.0409 5.18155 47.8958L12.6341 44.1696H29.6264C31.1978 44.1696 32.4763 42.891 32.4763 41.3197V18.3684C32.4763 16.797 31.1978 15.5186 29.6265 15.5186ZM30.6018 41.3197C30.6018 41.8575 30.1643 42.295 29.6265 42.295H12.4129C12.2674 42.295 12.1239 42.3289 11.9937 42.394L5.69976 45.541V43.2323C5.69976 42.7148 5.28015 42.295 4.7625 42.295H2.84983C2.31203 42.295 1.87452 41.8575 1.87452 41.3197V18.3684C1.87452 17.8306 2.31203 17.3931 2.84983 17.3931H29.6264C30.1642 17.3931 30.6017 17.8306 30.6017 18.3684V41.3197H30.6018Z" fill="#121619"/><path d="M30.0972 9.35987H41.0142C41.5317 9.35987 41.9514 8.94017 41.9514 8.42261C41.9514 7.90506 41.5317 7.48535 41.0142 7.48535H30.0972C28.8584 7.52987 28.8528 9.31301 30.0972 9.35987Z" fill="#121619"/><path d="M41.0141 11.502H30.0972C29.5796 11.502 29.1599 11.9217 29.1599 12.4392C29.1599 12.9568 29.5796 13.3765 30.0972 13.3765H41.0141C42.253 13.332 42.2585 11.5488 41.0141 11.502Z" fill="#121619"/><path d="M41.0142 15.5186H35.5558C34.3153 15.5638 34.3129 17.3468 35.5558 17.3931H41.0142C41.5317 17.3931 41.9515 16.9734 41.9515 16.4558C41.9515 15.9383 41.5317 15.5186 41.0142 15.5186Z" fill="#121619"/><path d="M12.4129 25.0815C10.7097 25.0815 9.32397 26.4672 9.32397 28.1704V31.5176C9.47881 35.6088 15.3469 35.6095 15.5019 31.5176V28.1705C15.5019 26.4672 14.1162 25.0815 12.4129 25.0815ZM13.6274 31.5176C13.5669 33.1252 11.2598 33.127 11.1985 31.5176V28.1704C11.1985 27.5008 11.7432 26.9561 12.4129 26.9561C13.0825 26.956 13.6274 27.5008 13.6274 28.1704V31.5176Z" fill="#121619"/><path d="M22.7774 25.2691C22.3632 24.9584 21.7758 25.0424 21.4652 25.4565L19.3272 28.3074V26.019C19.3272 25.5014 18.9075 25.0817 18.3899 25.0817C17.8722 25.0817 17.4526 25.5014 17.4526 26.019V33.6694C17.4526 34.187 17.8722 34.6067 18.3899 34.6067C18.9075 34.6067 19.3272 34.187 19.3272 33.6694V31.3809L21.4652 34.2318C21.7775 34.6483 22.3671 34.7281 22.7774 34.4192C23.1915 34.1087 23.2755 33.5212 22.9649 33.1071L20.5178 29.8442L22.9649 26.5813C23.2755 26.1671 23.1915 25.5796 22.7774 25.2691Z" fill="#121619"/></g><defs><clipPath id="clip0_1881_7153"><rect width="48" height="48" fill="white"/></clipPath></defs></svg>