<svg xmlns="http://www.w3.org/2000/svg" width="48" height="48" viewBox="0 0 48 48" fill="none"><g clip-path="url(#clip0_1881_7129)"><path d="M0.941162 11.2944H30.1176V24.4709H0.941162V11.2944Z" fill="#FFF27E"/><path d="M47.9093 24.1636C47.8729 24.0866 44.2852 16.8411 43.1964 14.6415C43.0377 14.3208 42.7108 14.1178 42.3529 14.1178H31.0588V7.52956C31.0588 7.00974 30.6375 6.58838 30.1176 6.58838H0.941176C0.421365 6.58838 0 7.00974 0 7.52956V28.2354V36.706C0 37.2258 0.421365 37.6472 0.941176 37.6472H4.77016C5.20885 39.7926 7.11642 41.4119 9.39642 41.4119C11.6764 41.4119 13.584 39.7926 14.0227 37.6472H33.9811C34.4255 39.7763 36.3223 41.3811 38.5883 41.3811C40.8544 41.3811 42.7512 39.7763 43.1956 37.6472H47.0588C47.5786 37.6472 48 37.2258 48 36.706V24.5649C48 24.4376 47.971 24.2944 47.9093 24.1636ZM41.7687 16.0001L45.5427 23.6237H31.0588V16.0001H41.7687ZM1.88235 8.47073H29.1765V27.2943H1.88235V8.47073ZM1.88235 29.1766H29.1765V35.7649H14.0227C13.584 33.6194 11.6765 32.0001 9.39642 32.0001C7.11642 32.0001 5.20885 33.6194 4.77016 35.7649H1.88235V29.1766ZM9.39642 39.5296C7.83106 39.5296 6.55755 38.2629 6.55755 36.706C6.55755 35.1491 7.83106 33.8825 9.39642 33.8825C10.9618 33.8825 12.2353 35.1491 12.2353 36.706C12.2353 38.2629 10.9618 39.5296 9.39642 39.5296ZM38.5882 39.4988C37.0313 39.4988 35.7647 38.239 35.7647 36.6906C35.7647 35.1423 37.0313 33.8825 38.5882 33.8825C40.1451 33.8825 41.4118 35.1423 41.4118 36.6906C41.4118 38.2391 40.1451 39.4988 38.5882 39.4988ZM43.2016 35.7649C42.7691 33.6204 40.8651 32.0001 38.5882 32.0001C36.3113 32.0001 34.4073 33.6204 33.9749 35.7649H31.0588C31.0588 34.7165 31.0588 26.9517 31.0588 25.506H46.1176V35.7649H43.2016Z" fill="#121619"/><path d="M35.7724 27.2944H33.8823C33.3625 27.2944 32.9412 27.7158 32.9412 28.2356C32.9412 28.7554 33.3625 29.1768 33.8823 29.1768H35.7724C36.2922 29.1768 36.7136 28.7554 36.7136 28.2356C36.7136 27.7158 36.2922 27.2944 35.7724 27.2944Z" fill="#121619"/><path d="M24.4706 15.0591H6.58827C6.06846 15.0591 5.64709 15.4804 5.64709 16.0003C5.64709 16.5201 6.06846 16.9414 6.58827 16.9414H24.4706C24.9904 16.9414 25.4118 16.5201 25.4118 16.0003C25.4118 15.4804 24.9904 15.0591 24.4706 15.0591Z" fill="#121619"/><path d="M24.4706 18.8237H6.58827C6.06846 18.8237 5.64709 19.2451 5.64709 19.7649C5.64709 20.2847 6.06846 20.7061 6.58827 20.7061H24.4706C24.9904 20.7061 25.4118 20.2847 25.4118 19.7649C25.4118 19.2451 24.9904 18.8237 24.4706 18.8237Z" fill="#121619"/></g><defs><clipPath id="clip0_1881_7129"><rect width="48" height="48" fill="white"/></clipPath></defs></svg>