<svg xmlns="http://www.w3.org/2000/svg" width="48" height="48" viewBox="0 0 48 48" fill="none"><g clip-path="url(#clip0_1881_7109)"><path d="M44.4413 11.6568L24.4686 0.125648C24.1785 -0.0418827 23.8212 -0.0418827 23.5311 0.125648L3.55835 11.6568C3.26829 11.8242 3.0896 12.1338 3.0896 12.4687V35.5312C3.0896 35.8661 3.26829 36.1756 3.55835 36.3431L23.5311 47.8743C23.8212 48.0418 24.1785 48.0418 24.4686 47.8743L44.4413 36.3431C44.7314 36.1756 44.9101 35.8661 44.9101 35.5312V12.4687C44.9101 12.1338 44.7314 11.8242 44.4413 11.6568ZM23.9998 2.02005L42.0976 12.4687L23.9998 22.9174L5.90219 12.4687L23.9998 2.02005ZM4.9646 14.0924L23.0623 24.5411V45.4387L4.9646 34.99V14.0924ZM24.9373 45.4387V24.5411L43.0351 14.0925V34.99L24.9373 45.4387Z" fill="#121619"/><path d="M12.421 34.6075L8.14201 32.137C7.69351 31.8781 7.12014 32.0318 6.86139 32.4801C6.60245 32.9285 6.7561 33.5019 7.20451 33.7607L11.4836 36.2312C11.9241 36.4878 12.5039 36.3407 12.7643 35.8881C13.0231 35.4397 12.8695 34.8663 12.421 34.6075Z" fill="#121619"/><path d="M7.20451 29.542L9.55782 30.9007C9.99826 31.1573 10.5781 31.0101 10.8384 30.5575C11.0974 30.1091 10.9437 29.5359 10.4953 29.2769L8.14201 27.9182C7.69351 27.6594 7.12014 27.813 6.86139 28.2613C6.60245 28.7098 6.7561 29.2831 7.20451 29.542Z" fill="#121619"/><path fill-rule="evenodd" clip-rule="evenodd" d="M30.1486 20.4502V28.8003L34.1708 23.9253L37.3758 24.6277V16.2775L16.4655 4.20508L9.23828 8.3777L11.7161 9.80823L30.1486 20.4502Z" fill="#F3E35B"/></g><defs><clipPath id="clip0_1881_7109"><rect width="48" height="48" fill="white"/></clipPath></defs></svg>