<svg width="24" height="24" viewBox="0 0 24 24" fill="none" xmlns="http://www.w3.org/2000/svg">
<g clip-path="url(#clip0_266_4684)">
<path d="M24 6C24 5.46957 23.7893 4.96086 23.4142 4.58579C23.0391 4.21071 22.5304 4 22 4H2C1.46957 4 0.960859 4.21071 0.585786 4.58579C0.210714 4.96086 0 5.46957 0 6L0 18C0 18.5304 0.210714 19.0391 0.585786 19.4142C0.960859 19.7893 1.46957 20 2 20H2.586C2.65233 20 2.71596 19.9738 2.763 19.927L5.884 16.806C6.13856 16.5497 6.44147 16.3464 6.77518 16.2081C7.10889 16.0697 7.46675 15.999 7.828 16H16.172C16.5333 15.999 16.8911 16.0697 17.2248 16.2081C17.5585 16.3464 17.8614 16.5497 18.116 16.806L21.237 19.927C21.284 19.9738 21.3477 20 21.414 20H22C22.5304 20 23.0391 19.7893 23.4142 19.4142C23.7893 19.0391 24 18.5304 24 18V6ZM18.5 13.5C18.0068 13.499 17.5249 13.3518 17.1152 13.0771C16.7056 12.8023 16.3866 12.4123 16.1985 11.9563C16.0104 11.5003 15.9617 10.9988 16.0586 10.5152C16.1554 10.0315 16.3934 9.58744 16.7425 9.23901C17.0917 8.89058 17.5362 8.65345 18.0201 8.55758C18.5039 8.46172 19.0053 8.51142 19.4609 8.7004C19.9166 8.88939 20.3059 9.20918 20.5799 9.61937C20.8538 10.0296 21 10.5117 21 11.005C20.9987 11.6672 20.7347 12.3018 20.266 12.7695C19.7973 13.2373 19.1622 13.5 18.5 13.5ZM8 11C8.00218 11.4949 7.85741 11.9793 7.58403 12.3919C7.31066 12.8045 6.92097 13.1266 6.46435 13.3175C6.00774 13.5084 5.50473 13.5595 5.01905 13.4643C4.53338 13.3691 4.08689 13.1319 3.73616 12.7827C3.38543 12.4335 3.14623 11.988 3.04887 11.5028C2.95151 11.0175 3.00038 10.5143 3.18927 10.0568C3.37816 9.59939 3.69858 9.20829 4.10994 8.9331C4.5213 8.65791 5.00508 8.511 5.5 8.511C6.16114 8.51099 6.79536 8.77288 7.26389 9.23934C7.73242 9.7058 7.99709 10.3389 8 11ZM10 11C10.0008 10.2599 9.81804 9.53111 9.468 8.879C9.44762 8.84094 9.43745 8.79825 9.43847 8.75509C9.43949 8.71193 9.45167 8.66977 9.47382 8.63272C9.49597 8.59566 9.52734 8.56498 9.56488 8.54365C9.60241 8.52232 9.64483 8.51107 9.688 8.511H14.312C14.3552 8.51107 14.3976 8.52232 14.4351 8.54365C14.4727 8.56498 14.504 8.59566 14.5262 8.63272C14.5483 8.66977 14.5605 8.71193 14.5615 8.75509C14.5626 8.79825 14.5524 8.84094 14.532 8.879C14.1813 9.53511 13.9987 10.2679 14.0007 11.0119C14.0026 11.7558 14.1889 12.4877 14.543 13.142C14.5636 13.1801 14.574 13.2229 14.5731 13.2662C14.5722 13.3095 14.5601 13.3518 14.5379 13.389C14.5157 13.4262 14.4842 13.457 14.4466 13.4784C14.4089 13.4998 14.3663 13.511 14.323 13.511H9.677C9.63369 13.511 9.59111 13.4998 9.55344 13.4784C9.51578 13.457 9.48431 13.4262 9.46213 13.389C9.43995 13.3518 9.42781 13.3095 9.42692 13.2662C9.42602 13.2229 9.43638 13.1801 9.457 13.142C9.81409 12.4846 10.0008 11.7481 10 11Z" fill="#343A3F"/>
<path d="M17.056 17.866C16.8211 17.6323 16.5034 17.5008 16.172 17.5H7.82802C7.49665 17.5008 7.17898 17.6323 6.94402 17.866L5.23702 19.573C5.20197 19.608 5.17809 19.6526 5.1684 19.7011C5.15872 19.7497 5.16367 19.8 5.18263 19.8457C5.20159 19.8915 5.2337 19.9305 5.2749 19.958C5.31609 19.9855 5.36451 20.0001 5.41402 20H18.586C18.6355 20.0001 18.684 19.9855 18.7251 19.958C18.7663 19.9305 18.7985 19.8915 18.8174 19.8457C18.8364 19.8 18.8413 19.7497 18.8316 19.7011C18.822 19.6526 18.7981 19.608 18.763 19.573L17.056 17.866Z" fill="#343A3F"/>
</g>
<defs>
<clipPath id="clip0_266_4684">
<rect width="24" height="24" fill="white"/>
</clipPath>
</defs>
</svg>
